<svg id="Layer_1" data-name="Layer 1" xmlns="http://www.w3.org/2000/svg" xmlns:xlink="http://www.w3.org/1999/xlink" viewBox="0 0 350.83 311.81"><defs><linearGradient id="linear-gradient" x1="58.23" y1="-32.12" x2="75.85" y2="-32.12" gradientTransform="translate(129.04 127.63) rotate(5.65)" gradientUnits="userSpaceOnUse"><stop offset="0" stop-color="#e5c5d5"/><stop offset="0.42" stop-color="#ead4d1"/><stop offset="1" stop-color="#f0e9cb"/></linearGradient><linearGradient id="linear-gradient-2" x1="79.7" y1="304.76" x2="107.11" y2="304.76" gradientUnits="userSpaceOnUse"><stop offset="0" stop-opacity="0"/><stop offset="0.95"/></linearGradient><linearGradient id="linear-gradient-3" x1="127.22" y1="254.85" x2="150.14" y2="254.85" xlink:href="#linear-gradient-2"/><linearGradient id="linear-gradient-4" x1="158.18" y1="277.23" x2="13.13" y2="130.2" xlink:href="#linear-gradient-2"/><linearGradient id="linear-gradient-5" x1="25.26" y1="-50.02" x2="12.01" y2="-12.11" gradientTransform="translate(129.04 127.63) rotate(5.65)" xlink:href="#linear-gradient-2"/><linearGradient id="linear-gradient-6" x1="-209.63" y1="-227.5" x2="-176.28" y2="-227.5" gradientTransform="translate(267.69 320.35) rotate(13.18)" xlink:href="#linear-gradient"/><linearGradient id="linear-gradient-7" x1="50.86" y1="-51.23" x2="65.55" y2="-51.23" xlink:href="#linear-gradient"/></defs><title>Step 1</title><path d="M58.24,241.78c-4.58-29,.95-58.61-.92-87.89-2.41-37.67-16.57-77.81.48-111.48C70.21,17.9,98,3.09,125.51,3.12s53.92,13.58,72.78,33.54c14.24,15.07,24.45,33.46,37.7,49.39,22.32,26.85,53.14,46.66,70.87,76.73,16.21,27.49,19.64,60.51,21,92.39.64,14.79-.05,31.82-11.56,41.13-8.14,6.59-19.41,7.27-29.87,7.66-52.36,2-106.61,8.33-158.92,5.94C88.42,308.11,67.17,277.48,58.24,241.78Z" transform="translate(-49.51 -3.12)" fill="#2c545d" opacity="0.24" style="isolation:isolate"/><path d="M355.85,313.73H124.06L181.27,110A111.58,111.58,0,0,1,288.69,28.59h0c73.93,0,127.42,70.58,107.43,141.75Z" transform="translate(-49.51 -3.12)" fill="#2c545d"/><path d="M197.32,94.92a1.47,1.47,0,0,1,.19,1.22,19.33,19.33,0,0,1,7.55-.37,3.76,3.76,0,0,1,2.65.94,2.54,2.54,0,0,1,.07,2.81,8.13,8.13,0,0,1-2.07,2.15c-1.24,1-2.45,2.07-3.62,3.16a19.56,19.56,0,0,1-4.29,3.42,5.63,5.63,0,0,1-5.27.18c-2.37-1.37-3.09-5.21-2.08-7.64.49-1.19,1.86-1.72,2.86-2.42A28.07,28.07,0,0,0,197.32,94.92Z" transform="translate(-49.51 -3.12)" fill="url(#linear-gradient)"/><path d="M305.94,95.22c5,.85,8.66,1,16.76,1h17.75c9.92,0,11.74,0,17.32-.55a219.37,219.37,0,0,0-1,22.49v73.21a163.19,163.19,0,0,0,1.11,21.1H327.45a160,160,0,0,0,1.12-21.1V120.1H323a147.17,147.17,0,0,0-17,1Z" transform="translate(-49.51 -3.12)" fill="#fff"/><path d="M187.39,193.71a5.51,5.51,0,0,0,1.09,3.12,6.17,6.17,0,0,0,4.94,2c3.25,0,5.18-1.43,5.18-3.79a3.15,3.15,0,0,0-1.77-3c-.88-.43-1.94-.72-6.32-1.74-3.88-.84-5.23-1.34-6.79-2.44a9.49,9.49,0,0,1-4.09-8.1c0-6.49,5.23-10.58,13.53-10.58,5.36,0,9.45,1.64,11.73,4.8a11.83,11.83,0,0,1,2.11,5.06l-8.94,1c-.51-2.74-2-3.87-5.23-3.87-2.58,0-4.47,1.39-4.47,3.33a2.9,2.9,0,0,0,2,2.7c.84.37.84.37,5.82,1.39A20.26,20.26,0,0,1,203,186a9.42,9.42,0,0,1,4.56,8.6,10.54,10.54,0,0,1-3,7.76c-2.44,2.37-6.15,3.59-11.09,3.59a20,20,0,0,1-9.4-2.07,10,10,0,0,1-4.56-5.4,16,16,0,0,1-.93-3.92Z" transform="translate(-49.51 -3.12)" fill="#fff"/><path d="M229.91,198.77a48.48,48.48,0,0,0,.34,6.37h-9.32a45.62,45.62,0,0,0,.34-6.37V177.51h-5a58.05,58.05,0,0,0-6.37.3v-8.06a57.53,57.53,0,0,0,6.29.3h18.47a55.86,55.86,0,0,0,6.58-.3v8.06a54.4,54.4,0,0,0-6.58-.3h-4.77Z" transform="translate(-49.51 -3.12)" fill="#fff"/><path d="M271,205.43a54.65,54.65,0,0,0-7-.29H250.72c-3.2,0-4.38,0-6.2.13a38,38,0,0,0,.34-6.16v-23a43.72,43.72,0,0,0-.34-6.16c1.73.09,2.91.13,6.2.13h13.46a51.82,51.82,0,0,0,6.28-.3v7.89a51.82,51.82,0,0,0-6.28-.3h-11v6.21h9.11a51.19,51.19,0,0,0,6.33-.3v7.8a52.46,52.46,0,0,0-6.33-.29h-9.11v7.08h10.88a57.62,57.62,0,0,0,6.88-.29Z" transform="translate(-49.51 -3.12)" fill="#fff"/><path d="M275.29,205.14a45.81,45.81,0,0,0,.33-6.24V176.08a47.74,47.74,0,0,0-.33-6.16c2,.09,3.5.13,6.2.13h9.23c8.35,0,12.95,4,12.95,11.34,0,7.51-4.81,12-13,12H284v5.4a55.08,55.08,0,0,0,.33,6.37Zm15-18.94c2.95,0,4.68-1.64,4.68-4.55s-1.64-4.43-4.68-4.43H284v9Z" transform="translate(-49.51 -3.12)" fill="#fff"/><path d="M83,296.9l-3.3,14.85a9.65,9.65,0,0,0,4.62,2.64c3.3,1,22.77.33,22.77.33s.66-4.29-5-7.59-8.25-2.64-8.25-2.64l-1-9.9Z" transform="translate(-49.51 -3.12)" fill="#2c545d"/><path d="M130.19,243.76l-3,5.61,10.56,12.87s7.43,4.79,10.89,3.47,0-12-2.14-13.2a18.92,18.92,0,0,0-4.79-1.65l-1-4.46Z" transform="translate(-49.51 -3.12)" fill="#2c545d"/><path d="M83,296.9l-3.3,14.85a9.65,9.65,0,0,0,4.62,2.64c3.3,1,22.77.33,22.77.33s.66-4.29-5-7.59-8.25-2.64-8.25-2.64l-1-9.9Z" transform="translate(-49.51 -3.12)" fill="url(#linear-gradient-2)"/><path d="M130.19,243.76l-3,5.61,10.56,12.87s7.43,4.79,10.89,3.47,0-12-2.14-13.2a18.92,18.92,0,0,0-4.79-1.65l-1-4.46Z" transform="translate(-49.51 -3.12)" fill="url(#linear-gradient-3)"/><path d="M126.7,149.44l22.57,30s7.37,12.58,6,20.77-14.52,46.2-14.52,46.2l-10.56-2.64s12.65-36.74,9.57-39.27-20.55-18.6-20.55-18.6l.42,49L95.21,294.92,83,296.9l14.52-60.4L84.18,173.18Z" transform="translate(-49.51 -3.12)" fill="#2c545d"/><path d="M126.7,149.44l22.57,30s7.37,12.58,6,20.77-14.52,46.2-14.52,46.2l-10.56-2.64s12.65-36.74,9.57-39.27-20.55-18.6-20.55-18.6l.42,49L95.21,294.92,83,296.9l14.52-60.4L84.18,173.18Z" transform="translate(-49.51 -3.12)" fill="url(#linear-gradient-4)"/><path d="M140,86.57a22.11,22.11,0,0,0,7.44,2.18c3.32.23,6.56-.83,9.75-1.74a124.22,124.22,0,0,1,31.3-4.78c.64,2.84,1.1,6.29-1,8.27a7.89,7.89,0,0,1-2.28,1.33c-4.82,2.06-9.81,4.35-14.8,5.93-6.39,2-12.74,3.49-18.83,6.28-4.2,1.93-8.42,4.06-13,4.54a12.45,12.45,0,0,1-7.78-1.45,16.42,16.42,0,0,1-4.66-4.87q-2-2.85-3.72-5.88a6.86,6.86,0,0,1-1.24-4c.16-1.58,1.32-2.84,2.46-4,1.63-1.58,5.27-6,7.65-6.13S137.87,85.62,140,86.57Z" transform="translate(-49.51 -3.12)" fill="#2c545d"/><path d="M139.48,86.8A22.58,22.58,0,0,0,146.92,89c3.31.22,6.56-.83,9.75-1.75A124.22,124.22,0,0,1,188,82.45c.63,2.85,1.1,6.29-1,8.27a7.81,7.81,0,0,1-2.29,1.33c-4.81,2.06-9.81,4.36-14.8,5.93-6.39,2-12.74,3.49-18.83,6.29-4.19,1.92-8.41,4.06-13,4.54a12.56,12.56,0,0,1-7.77-1.45,16.53,16.53,0,0,1-4.66-4.87c-1.33-1.9-2.58-3.87-3.72-5.88a6.89,6.89,0,0,1-1.24-4c.16-1.57,1.32-2.84,2.46-3.94,1.63-1.58,5.27-6,7.64-6.13S137.33,85.84,139.48,86.8Z" transform="translate(-49.51 -3.12)" fill="url(#linear-gradient-5)"/><path d="M105.81,71.05c-5.6,2.64-9.34,8.12-11.83,13.78-3,6.92-4.61,14.39-6.15,21.79-4.35,20.9-8.72,42.13-7,63.41.16,2,.49,4.28,2.08,5.55a6.83,6.83,0,0,0,3.86,1.19c7.24.51,14.34-1.92,21.19-4.32,6-2.11,12.35-4.43,16.47-9.3,4.9-5.79,5.66-13.91,6.2-21.47l1.74-24.14c.55-7.53,1.09-15.15-.18-22.6C130.22,83.46,120.16,64.27,105.81,71.05Z" transform="translate(-49.51 -3.12)" fill="#2c545d"/><path d="M148.32,41.3c2.55,6.55.61,13.9-1.36,20.65a24.41,24.41,0,0,1-2.49,6.33,8.28,8.28,0,0,1-5.31,4c-3,.54-6.38-1.16-9.07.32-2.89,1.59-3.37,6.06-6.43,7.28-2.4,1-5-.63-7.1-2.16s-4.59-3.51-5.19-6.21c-.49-2.2.33-4.46,1.13-6.57l8.69-22.75c1.22-3.18,2.55-6.53,5.26-8.6,2.22-1.7,5.06-2.3,7.79-2.85,3.43-.7,7-1.39,10.38-.49s6.47,3.91,6.23,7.4" transform="translate(-49.51 -3.12)" fill="url(#linear-gradient-6)"/><path d="M150.35,42c-2.76,1.4-6.09.63-9.16,1a12.21,12.21,0,0,0-9.56,7.36c-.3.72-.72,1.62-1.5,1.59s-1.15-1.06-1.68-1.7c-1-1.23-3.18-.9-4.16.35a5,5,0,0,0-.48,4.58,4.66,4.66,0,0,1,.45,2.09,3.67,3.67,0,0,1-.86,1.67l-2.89,3.82a5.28,5.28,0,0,1-1.82,1.73c-1.62.76-3.6-.37-4.48-1.93A14.2,14.2,0,0,1,113,57.37c-.25-1.85-.67-3.69-.83-5.55a20.27,20.27,0,0,1,3.69-13.45c2.63-3.67,6.41-6.33,10.1-8.92a24.49,24.49,0,0,1,4.22-2.54c4.58-2,9.86-1,14.63.49a11,11,0,0,1,5.1,2.72c1.27,1.4,3.62,3.71,3.9,5.54A6.52,6.52,0,0,1,150.35,42Z" transform="translate(-49.51 -3.12)" fill="#606060"/><path d="M149.4,94.1a12.55,12.55,0,0,0,3.85,3.05,11.87,11.87,0,0,0,4.36.64l32.85.62a2.34,2.34,0,0,1,1.88.61,2.25,2.25,0,0,1,.29,1.6,55.9,55.9,0,0,1-2.21,12.23c-10.53,3-21.61,3.2-32.54,3.43a41.19,41.19,0,0,1-8.53-.41,37.61,37.61,0,0,1-9.4-3.53q-8.23-4-16.12-8.73c-4.13-2.46-8.42-5.32-10.28-9.76C112,90.16,99.08,79,101.37,75.74,110.53,62.57,142.17,86.82,149.4,94.1Z" transform="translate(-49.51 -3.12)" fill="#2c545d"/><path d="M196,74.17a5.12,5.12,0,0,1,2.18-.32,2.2,2.2,0,0,1,1.75,1.2,3.4,3.4,0,0,1-.26,2.43l-2.59,7a11.86,11.86,0,0,1-2.07,4,8.82,8.82,0,0,1-4.88,2.49c-1.53.31-3.34.33-4.43-.8a5,5,0,0,1-1.08-2.27C182.8,81.25,190.31,76,196,74.17Z" transform="translate(-49.51 -3.12)" fill="url(#linear-gradient-7)"/></svg>