<svg id="Layer_1" data-name="Layer 1" xmlns="http://www.w3.org/2000/svg" xmlns:xlink="http://www.w3.org/1999/xlink" viewBox="0 0 223.76 316.58"><defs><linearGradient id="linear-gradient" x1="194.07" y1="114.27" x2="175.18" y2="13.5" gradientUnits="userSpaceOnUse"><stop offset="0" stop-opacity="0"/><stop offset="0.95"/></linearGradient><linearGradient id="linear-gradient-2" x1="179.04" y1="108.59" x2="189.36" y2="108.59" xlink:href="#linear-gradient"/><linearGradient id="linear-gradient-3" x1="133.55" y1="143.46" x2="269.61" y2="55.9" xlink:href="#linear-gradient"/><linearGradient id="linear-gradient-4" x1="222.94" y1="83.03" x2="237.65" y2="83.03" gradientUnits="userSpaceOnUse"><stop offset="0" stop-color="#e5c5d5"/><stop offset="0.42" stop-color="#ead4d1"/><stop offset="1" stop-color="#f0e9cb"/></linearGradient><linearGradient id="linear-gradient-5" x1="227.31" y1="76.37" x2="242.07" y2="76.37" xlink:href="#linear-gradient-4"/><linearGradient id="linear-gradient-6" x1="176.08" y1="70.73" x2="200.64" y2="9" xlink:href="#linear-gradient"/><linearGradient id="linear-gradient-7" x1="-743.29" y1="-515.81" x2="-722.07" y2="-515.81" gradientTransform="matrix(0.83, 0.55, -0.55, 0.83, 533.62, 853.2)" xlink:href="#linear-gradient-4"/><linearGradient id="linear-gradient-8" x1="133.47" y1="52.85" x2="81.48" y2="55.55" xlink:href="#linear-gradient"/><linearGradient id="linear-gradient-9" x1="163.73" y1="161.21" x2="176.17" y2="150.66" xlink:href="#linear-gradient"/></defs><title>Step 2</title><path d="M94.06,255.63c5.32-20.57,16.78-39.46,19.59-60.52,2.24-16.76-1.15-33.67-2.86-50.49-1.88-18.62-1.65-37.66,3.1-55.76,4.53-17.28,13.71-34,28.59-43.92s36-11.36,50.19-.45c13.79,10.64,17.89,29.44,20,46.73C215,109.8,216,128.94,211,147c-4.69,17-14.46,32-21.82,48s-12.36,34.38-6.85,51.1c3.31,10.07,10.27,19,11.67,29.47,2.38,18-13,34.42-30.34,39.7C119.55,328.67,81.79,303.07,94.06,255.63Z" transform="translate(-91.72 -2.22)" fill="#2c545d" opacity="0.24" style="isolation:isolate"/><path d="M175.71,78l26.87-8s6.3,1.68,6.3,8.4S200.48,94,200.48,94l-11.76,13.86-5.82,9.53-5.51-11.21,7.13-10.92s-9.23,3.78-15.11-2.1S175.71,78,175.71,78Z" transform="translate(-91.72 -2.22)" fill="#2c545d"/><path d="M208.89,78.41c0,6.74-8.41,15.55-8.41,15.55l-11.75,13.85-5.84,9.53-5.5-11.21,7.13-10.92s-9.24,3.78-15.12-2.1c-3.62-3.6-.4-8.5,2.62-11.72a24.17,24.17,0,0,0,2.82.11,6.39,6.39,0,0,0,4.09-1.07,6.58,6.58,0,0,0,1.14-1.28c.58-.78,1.32-1.83,2.17-3.09l20.34-6S208.89,71.7,208.89,78.41Z" transform="translate(-91.72 -2.22)" fill="url(#linear-gradient)"/><path d="M185.33,105.49c.31.18.66.3,1,.51a4.06,4.06,0,0,1,1.15,1.55l1.48,2.88a3.15,3.15,0,0,1,.44,1.28,2.15,2.15,0,0,1-.6,1.49,5.08,5.08,0,0,1-4.15,1.36,3.59,3.59,0,0,1-2.23-.72,4.1,4.1,0,0,1-.82-1.11,29.59,29.59,0,0,1-1.79-3.72c-.72-1.79-1.46-4.91.68-6.13S183.82,104.64,185.33,105.49Z" transform="translate(-91.72 -2.22)" fill="url(#linear-gradient-2)"/><path d="M267.36,318.11H119.88L176.09,129.7a71,71,0,0,1,68.35-51.8h0c47,0,81.07,44.9,68.35,90.18Z" transform="translate(-91.72 -2.22)" fill="#2c545d"/><path d="M169.29,125c0,3.34-1.26,6.54-2.52,9.64l-6,14.69a10.72,10.72,0,0,0-1.16,5.37c.35,2.72,2.64,4.7,4.78,6.41,2.4,1.92,4.95,3.89,8,4.35s6.62-1.24,7.11-4.26c.55-3.39-2.75-6.11-3.72-9.41-.73-2.5-.07-5.18.72-7.66,2.78-8.75,7.12-17.25,7.32-26.43.22-9.62-4.15-18.29-6.37-27.44-1.66-6.81-1.33-8.3-8.69-9.56-3.76-.64-9.29-1.89-12.64.73C142.93,91.69,169.26,114.06,169.29,125Z" transform="translate(-91.72 -2.22)" fill="#2c545d"/><path d="M169.24,125.12c0,3.34-1.27,6.54-2.52,9.64l-6,14.69a10.82,10.82,0,0,0-1.17,5.37c.36,2.71,2.65,4.7,4.79,6.41,2.4,1.91,5,3.89,8,4.35s.64-9-.33-12.3c-.73-2.5,11.55-26.28,11.76-35.46.22-9.62-4.15-18.29-6.38-27.44-1.65-6.81-1.32-8.3-8.68-9.56-3.76-.65-9.29-1.89-12.64.72C142.88,91.85,169.21,114.22,169.24,125.12Z" transform="translate(-91.72 -2.22)" fill="url(#linear-gradient-3)"/><path d="M233.25,78.34a4.81,4.81,0,0,1,1.51.28,1.25,1.25,0,0,1,.81,1.19c-.06.48-.5.83-.65,1.29a2.35,2.35,0,0,0,.47,1.83l1.79,3a2,2,0,0,1,.39,1.68,1.45,1.45,0,0,1-.53.62,5.84,5.84,0,0,1-4.07.9,11.68,11.68,0,0,1-10-8.62,1.27,1.27,0,0,1,0-.61,1.22,1.22,0,0,1,.44-.59,9.26,9.26,0,0,1,4.9-2.45C230,76.79,231.55,78.15,233.25,78.34Z" transform="translate(-91.72 -2.22)" fill="url(#linear-gradient-4)"/><path d="M260.51,204.12c-8,0-10,.09-13.33.35A44.41,44.41,0,0,1,249,194a45.76,45.76,0,0,1,12.8-19.91c3.38-3.11,6.76-5.69,15.83-11.82,7.64-5.16,9.51-7.47,9.51-11.56,0-4.27-3.82-7.11-9.51-7.11-4.27,0-7.29,1.42-9.25,4.45-1.24,1.95-1.78,3.73-2.22,7.46l-18.67-2c1.34-7.74,2.94-11.65,6.49-15.83,5.07-6,13.16-9.15,23.56-9.15,12,0,21.16,4,25.6,11.2a19.08,19.08,0,0,1,2.93,10.4c0,6.49-2.66,12-8.17,16.53-2.94,2.58-3.83,3.2-12.89,9.51-7.74,5.34-11,8.45-13.07,12.36h20.71a113.38,113.38,0,0,0,14.22-.62v16.8c-5.15-.44-8.89-.62-15.2-.62Z" transform="translate(-91.72 -2.22)" fill="#fff"/><path d="M235.7,74.49a17.9,17.9,0,0,1,2.75.18c1.44.38,2.42,1.69,3.25,2.93a1.47,1.47,0,0,1,.36,1c-.07.68-.92.91-1.6,1L236.3,80a8.38,8.38,0,0,1-6.72-1.61c-2-1.17-3.59-4.09-.74-5.49C230.94,71.85,233.62,74.26,235.7,74.49Z" transform="translate(-91.72 -2.22)" fill="url(#linear-gradient-5)"/><path d="M171.05,196.39a3.52,3.52,0,0,0,.69,2,3.94,3.94,0,0,0,3.14,1.26c2.07,0,3.3-.91,3.3-2.42a2,2,0,0,0-1.12-1.87,21.48,21.48,0,0,0-4-1.1c-2.47-.54-3.33-.86-4.32-1.56a6,6,0,0,1-2.6-5.15c0-4.14,3.33-6.74,8.61-6.74,3.41,0,6,1,7.46,3.06a7.52,7.52,0,0,1,1.34,3.22l-5.69.62c-.32-1.75-1.28-2.47-3.32-2.47-1.64,0-2.85.89-2.85,2.12a1.86,1.86,0,0,0,1.26,1.72c.54.24.54.24,3.71.88a13,13,0,0,1,4.34,1.53,6,6,0,0,1,2.9,5.47,6.68,6.68,0,0,1-1.88,4.94c-1.55,1.51-3.91,2.28-7.05,2.28a12.79,12.79,0,0,1-6-1.31,6.39,6.39,0,0,1-2.9-3.44,10.45,10.45,0,0,1-.59-2.49Z" transform="translate(-91.72 -2.22)" fill="#fff"/><path d="M198.1,199.61a30.59,30.59,0,0,0,.22,4h-5.93a30,30,0,0,0,.21-4V186.09h-3.16a36.5,36.5,0,0,0-4.05.19v-5.13a35.86,35.86,0,0,0,4,.19h11.76a34.14,34.14,0,0,0,4.18-.19v5.13a33.3,33.3,0,0,0-4.18-.19h-3Z" transform="translate(-91.72 -2.22)" fill="#fff"/><path d="M224.22,203.85a35.06,35.06,0,0,0-4.42-.19h-8.46c-2,0-2.79,0-3.94.09a25.06,25.06,0,0,0,.21-3.92V185.18a28.6,28.6,0,0,0-.21-3.92c1.1.05,1.85.08,3.94.08h8.56a31.71,31.71,0,0,0,4-.19v5a33.72,33.72,0,0,0-4-.19h-7v4h5.79a32.43,32.43,0,0,0,4-.19v5a34,34,0,0,0-4-.19h-5.79V199h6.92a34.94,34.94,0,0,0,4.37-.19Z" transform="translate(-91.72 -2.22)" fill="#fff"/><path d="M227,203.66a28.91,28.91,0,0,0,.21-4V185.18a30.22,30.22,0,0,0-.21-3.92c1.26.05,2.23.08,3.95.08h5.87c5.31,0,8.24,2.55,8.24,7.22s-3.06,7.62-8.27,7.62h-4.24v3.43a35.48,35.48,0,0,0,.22,4Zm9.55-12a2.68,2.68,0,0,0,3-2.9c0-1.85-1-2.82-3-2.82h-4v5.72Z" transform="translate(-91.72 -2.22)" fill="#fff"/><path d="M186.88,23.23c-3.92.35-7.36,2.79-10.1,5.63a69.12,69.12,0,0,0-8.46,11.66c-7.19,11.51-14.47,23.23-18.14,36.3-.35,1.25-.65,2.67,0,3.78a4.31,4.31,0,0,0,2.05,1.55c4.21,1.9,9,2,13.6,2.09,4.06.06,8.34.07,11.88-1.93,4.19-2.38,6.43-7.06,8.42-11.46l6.35-14c2-4.37,4-8.8,4.86-13.53C198.72,36,196.94,22.34,186.88,23.23Z" transform="translate(-91.72 -2.22)" fill="#2c545d"/><path d="M182.24,76.06c-.85,1.26-1.59,2.31-2.17,3.09a6.58,6.58,0,0,1-1.14,1.28,6.39,6.39,0,0,1-4.09,1.07,24.17,24.17,0,0,1-2.82-.11,30.26,30.26,0,0,1-7.43-1.5,1.93,1.93,0,0,1-1.41-3.11A86.31,86.31,0,0,1,186.4,45a3.31,3.31,0,0,1,1.17-.72,2.38,2.38,0,0,1,1.85.59C197.37,51.23,187.79,67.85,182.24,76.06Z" transform="translate(-91.72 -2.22)" fill="url(#linear-gradient-6)"/><path d="M218.8,14.82c.08,4.47-2.69,8.43-5.35,12a15.32,15.32,0,0,1-2.88,3.23,5.28,5.28,0,0,1-4,1.2c-1.92-.34-3.56-2.1-5.49-1.81s-3.34,2.88-5.44,2.94c-1.64,0-2.85-1.48-3.76-2.85s-2-3.11-1.73-4.85A7.38,7.38,0,0,1,192.23,21L202.42,9.36c1.42-1.63,3-3.34,5-4a11.91,11.91,0,0,1,5.28,0c2.19.34,4.48.72,6.3,2s3,3.75,2.09,5.78" transform="translate(-91.72 -2.22)" fill="url(#linear-gradient-7)"/><path d="M219.87,15.67c-2,.23-3.78-1-5.7-1.4a7.78,7.78,0,0,0-7.33,2.29c-.33.36-.78.81-1.24.62s-.45-.89-.63-1.39a1.78,1.78,0,0,0-2.56-.7,3.15,3.15,0,0,0-1.29,2.62,3.19,3.19,0,0,1-.19,1.35,2.4,2.4,0,0,1-.89.81l-2.56,1.65a3.43,3.43,0,0,1-1.47.63A2.37,2.37,0,0,1,193.76,20a9,9,0,0,1,.42-3.36c.25-1.17.41-2.35.72-3.5a12.86,12.86,0,0,1,5.16-7.22,25.64,25.64,0,0,1,8-3.1,14.83,14.83,0,0,1,3.08-.59c3.17-.18,6.1,1.59,8.62,3.51a6.93,6.93,0,0,1,2.45,2.74c.45,1.12,1.35,3,1.11,4.17A4.15,4.15,0,0,1,219.87,15.67Z" transform="translate(-91.72 -2.22)" fill="#606060"/><polygon points="105.72 31.58 122.73 53.63 140.42 68.43 134.28 75.52 112.44 58.24 102.36 42.5 105.72 31.58" fill="#2c545d"/><polygon points="105.72 31.58 122.73 53.63 140.73 69.53 134.28 75.52 112.44 58.24 104.04 44.34 105.72 31.58" fill="url(#linear-gradient-8)"/><path d="M190.09,33.38,209,60.68l20.94,16-7.72,7.71-18.68-14s-21.42-23.1-21.84-25.62S181.27,33.38,190.09,33.38Z" transform="translate(-91.72 -2.22)" fill="#2c545d"/><path d="M161.9,147.82s4.25,3.78,7.72,3.94,5.51,6.29,5.51,6.29,4.56,9.77-2.68,8.51-12.8-8.52-12.86-11.74S161.9,147.82,161.9,147.82Z" transform="translate(-91.72 -2.22)" fill="url(#linear-gradient-9)"/></svg>